<svg xmlns="http://www.w3.org/2000/svg" width="170" height="40" viewBox="0 0 170 40">
  <g id="Group_31153" data-name="Group 31153" transform="translate(11312 11609)">
    <rect id="Rectangle_21258" data-name="Rectangle 21258" width="40" height="40" rx="6" transform="translate(-11309 -11609)" fill="#cecece"/>
    <g id="Group_31144" data-name="Group 31144" transform="translate(-11735.456 -11869.104)">
      <path id="Path_28082" data-name="Path 28082" d="M16.384-13.405V-16.56H.456v3.155H6.4V1.281h4.034V-13.405ZM34.276-16.56H30.243v7.5H22.434v-7.5H18.375V1.281h4.059V-5.881h7.809V1.281h4.034ZM51.264-1.9H42.085V-6.088h8.326V-9.243H42.085v-4.163h8.921V-16.56H38.026V1.281H51.264Z" transform="translate(470 288)" fill="#ffaa01"/>
      <path id="Path_28081" data-name="Path 28081" d="M7.918-16.9c-3.33,0-6.287,1.864-6.287,5.069,0,3.28,2.236,4.5,5.914,5.417,2.336.547,3.131,1.367,3.131,2.559,0,1.168-1.118,1.913-2.535,1.913a3.137,3.137,0,0,1-3.28-2.609H.936C1.234-.844,4.017.945,8.217.945c3.429,0,6.535-1.789,6.535-5.119,0-2.708-1.64-4.5-5.417-5.392-2.758-.646-3.628-1.342-3.628-2.634,0-1.242.87-1.814,2.087-1.814A2.62,2.62,0,0,1,10.527-11.4h3.926C14.081-14.511,12.192-16.9,7.918-16.9Zm24.749.348H28.791v7.206h-7.5v-7.206h-3.9V.6h3.9V-6.286h7.5V.6h3.876ZM44.073-16.9c-5.318,0-8.622,3.479-8.622,8.921,0,5.417,3.3,8.921,8.622,8.921,5.293,0,8.6-3.5,8.6-8.921C52.67-13.417,49.365-16.9,44.073-16.9Zm0,14.959c-2.858,0-4.6-2.211-4.6-6.038,0-3.851,1.739-6.038,4.6-6.038,2.833,0,4.572,2.187,4.572,6.038C48.645-4.149,46.905-1.937,44.073-1.937Zm20.2-14.487a20.533,20.533,0,0,0-2.559-.124H55.528V.6h3.9V-5.665h2.286a20.533,20.533,0,0,0,2.559-.124,5.078,5.078,0,0,0,4.671-5.318A5.027,5.027,0,0,0,64.274-16.424ZM62.933-8.771a10.842,10.842,0,0,1-1.367.05H59.429v-4.771h2.137a10.842,10.842,0,0,1,1.367.05,2.086,2.086,0,0,1,1.938,2.336A2.086,2.086,0,0,1,62.933-8.771Z" transform="translate(524.51 288)"/>
    </g>
    <rect id="Rectangle_21257" data-name="Rectangle 21257" width="40" height="40" rx="6" transform="translate(-11312 -11609)"/>
    <g id="Group_31150" data-name="Group 31150" transform="translate(-11486 -11878)">
      <g id="LWPOLYLINE" transform="translate(189.801 281.069)">
        <path id="Path_2" data-name="Path 2" d="M205.865,290.355l1.109-4.138a3.105,3.105,0,0,0-3-3.907h-9.061a1.035,1.035,0,0,0,0,2.069h9.061a1.048,1.048,0,0,1,.268.035,1.034,1.034,0,0,1,.731,1.267l-1.109,4.138a1.034,1.034,0,0,1-1,.767h-5.735a1.034,1.034,0,1,0,0,2.069h5.735A3.1,3.1,0,0,0,205.865,290.355Z" transform="translate(-193.881 -282.31)" fill="#ffaa01"/>
      </g>
      <g id="ARC" transform="translate(183 279)">
        <path id="Path_3" data-name="Path 3" d="M184.034,279a1.034,1.034,0,1,0,0,2.069h.594a1.035,1.035,0,0,1,1,.767l2.874,10.726a3.1,3.1,0,0,0,3,2.3h8.266a1.034,1.034,0,0,0,1.034-1.034h0a1.034,1.034,0,0,0-1.034-1.034H191.5a1.034,1.034,0,0,1-1-.767L187.626,281.3a3.1,3.1,0,0,0-3-2.3Z" transform="translate(-183 -279)" fill="#ffaa01"/>
      </g>
      <g id="CIRCLE" transform="translate(196.624 295.837)">
        <path id="Path_4" data-name="Path 4" d="M205.445,308.168a1.581,1.581,0,1,1,1.581,1.582,1.581,1.581,0,0,1-1.581-1.582Z" transform="translate(-205.445 -306.586)" fill="#ffaa01"/>
      </g>
      <g id="CIRCLE-2" data-name="CIRCLE" transform="translate(189.801 295.837)">
        <path id="Path_5" data-name="Path 5" d="M194.632,308.168a1.582,1.582,0,1,1,1.582,1.582,1.581,1.581,0,0,1-1.582-1.582Z" transform="translate(-194.632 -306.586)" fill="#ffaa01"/>
      </g>
    </g>
  </g>
</svg>
